<svg width="295" height="258" viewBox="0 0 295 258" fill="none" xmlns="http://www.w3.org/2000/svg">
<path d="M94.2886 231.532C91.8472 231.532 89.5168 231.042 87.7875 230.034L2.64481 180.883C0.934008 179.894 0 178.525 0 177.018C0 175.215 1.35015 173.393 3.70829 172.033L166.078 78.2997C170.489 75.7474 177.203 75.4792 181.031 77.6894L266.164 126.84C267.875 127.83 268.809 129.199 268.809 130.706C268.809 132.509 267.459 134.331 265.101 135.69L102.732 229.424C100.318 230.82 97.22 231.532 94.2793 231.532H94.2886ZM87.9632 229.72C91.69 231.875 98.2373 231.597 102.547 229.11L264.916 135.367C267.154 134.072 268.439 132.37 268.439 130.706C268.439 129.337 267.561 128.08 265.98 127.164L180.846 78.0131C177.119 75.8584 170.572 76.1358 166.263 78.6234L3.89324 172.357C1.65532 173.652 0.369904 175.353 0.369904 177.018C0.369904 178.387 1.24843 179.644 2.82977 180.56L87.9632 229.711V229.72Z" fill="#42E8E0"/>
<path d="M268.633 107.993L256.408 110.102L180.948 66.5363C177.165 64.3539 170.553 64.622 166.179 67.1466L21.8055 150.495L0.184647 154.222V161.888C0.175399 163.285 1.00768 164.616 2.72774 165.615L87.8612 214.766C91.6434 216.949 98.2555 216.68 102.63 214.156L264.999 120.413C267.348 119.053 268.569 117.324 268.606 115.669H268.615V108.003L268.633 107.993Z" fill="url(#paint0_linear_636_37125)"/>
<path d="M87.8705 207.045L2.73706 157.894C-1.04521 155.711 -0.573579 151.892 3.80054 149.367L166.17 55.6244C170.544 53.0998 177.156 52.8224 180.938 55.0141L266.072 104.165C269.854 106.348 269.382 110.167 265.008 112.691L102.648 206.434C98.274 208.959 91.662 209.236 87.8797 207.045H87.8705Z" fill="#24126A"/>
<path d="M265.018 112.691L102.648 206.434C98.2742 208.959 91.6621 209.236 87.8799 207.044L2.7372 157.893C1.2206 157.015 0.39756 155.877 0.221855 154.666C-0.00933467 156.238 0.804454 157.773 2.7372 158.892L87.8706 208.043C91.6529 210.226 98.2649 209.957 102.639 207.433L265.008 113.69C267.625 112.183 268.837 110.204 268.578 108.391C268.356 109.908 267.154 111.452 265.008 112.691H265.018Z" fill="white"/>
<path opacity="0.51" d="M88.0459 205.14L5.93647 157.727C2.27442 155.609 2.7368 151.92 6.96296 149.478L166.327 57.4923C170.553 55.051 176.952 54.7828 180.614 56.9005L262.715 104.313C266.377 106.431 265.914 110.12 261.688 112.562L102.333 204.548C98.1073 206.989 91.708 207.257 88.0459 205.14Z" fill="url(#paint1_linear_636_37125)"/>
<path opacity="0.51" d="M87.3545 205.154L5.24507 157.741C1.58302 155.623 2.0454 151.934 6.27155 149.492L165.635 57.5063C169.862 55.0649 176.261 54.7968 179.923 56.9145L262.023 104.327C265.685 106.445 265.223 110.134 260.997 112.576L101.642 204.562C97.4159 207.003 91.0166 207.271 87.3545 205.154Z" fill="url(#paint2_linear_636_37125)" fill-opacity="0.28"/>
<path style="mix-blend-mode:lighten" opacity="0.8" d="M94.2516 204.714C91.875 204.714 89.6093 204.234 87.917 203.263L5.80753 155.841C4.12447 154.87 3.19971 153.52 3.19971 152.031C3.19971 150.255 4.52211 148.471 6.83401 147.13L166.198 55.153C170.489 52.6746 177.027 52.4064 180.754 54.5611L262.854 101.974C264.537 102.945 265.462 104.295 265.462 105.784C265.462 107.559 264.139 109.344 261.827 110.685L102.463 202.661C100.115 204.012 97.0999 204.705 94.2423 204.705L94.2516 204.714ZM88.1759 202.8C91.764 204.872 98.0524 204.603 102.205 202.208L261.559 110.232C263.695 108.993 264.925 107.374 264.925 105.793C264.925 104.498 264.093 103.314 262.586 102.436L180.485 55.0235C176.897 52.952 170.609 53.2202 166.457 55.6153L7.10219 147.592C4.966 148.831 3.73607 150.45 3.73607 152.031C3.73607 153.326 4.56835 154.509 6.07571 155.388L88.1759 202.8Z" fill="url(#paint3_linear_636_37125)"/>
<g opacity="0.1">
<path d="M142.141 140.462C142.141 130.151 134.9 117.611 125.967 112.451C121.491 109.871 117.44 109.631 114.518 111.332L111.457 113.117L112.345 113.2C110.736 115.17 109.792 118.083 109.792 121.791C109.792 132.102 117.033 144.642 125.967 149.802C129.037 151.578 131.903 152.244 134.345 151.939L134.28 152.762L137.387 150.949L137.424 150.931L137.554 150.857C140.393 149.127 142.15 145.548 142.15 140.471L142.141 140.462Z" fill="#9FFFF8"/>
<path d="M134.306 152.746C140.622 149.1 140.623 137.276 134.307 126.338C127.992 115.4 117.752 109.489 111.436 113.136C105.12 116.782 105.119 128.605 111.435 139.544C117.75 150.482 127.99 156.393 134.306 152.746Z" fill="#42E8E0"/>
</g>
<path opacity="0.4" d="M245.182 110.075C243.924 110.796 241.899 110.796 240.641 110.075C239.383 109.353 239.383 108.179 240.641 107.457C241.899 106.736 243.924 106.736 245.182 107.457C246.439 108.179 246.439 109.353 245.182 110.075Z" fill="#24126A"/>
<path opacity="0.4" d="M227.861 97.4512L236.748 102.584C237.83 103.212 237.7 104.304 236.443 105.025C235.185 105.746 233.289 105.83 232.207 105.201L223.32 100.068C222.238 99.4394 222.368 98.3482 223.625 97.6269C224.883 96.9056 226.779 96.8224 227.861 97.4512Z" fill="#24126A"/>
<path opacity="0.4" d="M177.184 66.6844L186.071 71.8168C187.153 72.4457 187.023 73.5369 185.766 74.2582C184.508 74.9795 182.612 75.0627 181.53 74.4339L172.643 69.3015C171.562 68.6727 171.691 67.5814 172.949 66.8601C174.206 66.1388 176.102 66.0556 177.184 66.6844Z" fill="#24126A"/>
<path d="M245.182 106.884C243.924 107.605 241.899 107.605 240.641 106.884C239.383 106.163 239.383 104.988 240.641 104.267C241.899 103.546 243.924 103.546 245.182 104.267C246.439 104.988 246.439 106.163 245.182 106.884Z" fill="#42E8E0"/>
<path d="M227.861 94.2611L236.748 99.3935C237.83 100.022 237.7 101.114 236.443 101.835C235.185 102.556 233.289 102.639 232.207 102.011L223.32 96.8781C222.238 96.2493 222.368 95.1581 223.625 94.4368C224.883 93.7154 226.779 93.6322 227.861 94.2611Z" fill="#42E8E0"/>
<path d="M177.184 63.5033L186.071 68.6357C187.153 69.2646 187.023 70.3558 185.766 71.0771C184.508 71.7984 182.612 71.8816 181.53 71.2528L172.643 66.1204C171.562 65.4915 171.691 64.4003 172.949 63.679C174.206 62.9577 176.102 62.8745 177.184 63.5033Z" fill="#42E8E0"/>
<g opacity="0.3">
<path d="M294.971 218.863V214.72L293.824 214.082C293.501 216.042 291.198 217.328 289.275 217.596L276.171 225.262L270.446 227.324L252.192 217.901L252.617 217.661C251.054 216.93 250.213 215.266 249.371 213.74L248.141 214.47L247.411 214.674V218.928C247.411 219.741 247.947 220.555 249.02 221.165L267.311 231.726C269.457 232.965 272.934 232.965 275.079 231.726L293.371 221.165C294.425 220.555 294.962 219.76 294.98 218.965C294.98 218.928 294.98 218.891 294.98 218.854L294.971 218.863Z" fill="url(#paint4_linear_636_37125)"/>
<path opacity="0.3" d="M289.274 217.587L276.171 225.253L271.195 227.047V232.651C272.601 232.651 274.007 232.346 275.079 231.726L293.371 221.165C294.425 220.555 294.962 219.76 294.98 218.964C294.98 218.927 294.98 218.891 294.98 218.854V214.711L293.935 214.128H293.824C293.464 216.051 291.189 217.318 289.284 217.587H289.274Z" fill="#0F054C"/>
<path d="M267.302 227.519L249.01 216.958C246.865 215.719 246.865 213.712 249.01 212.473L267.302 201.912C269.448 200.673 272.925 200.673 275.07 201.912L293.362 212.473C295.507 213.712 295.507 215.719 293.362 216.958L275.07 227.519C272.925 228.758 269.448 228.758 267.302 227.519Z" fill="url(#paint5_linear_636_37125)"/>
<g opacity="0.3">
<path d="M267.302 227.519L249.01 216.958C246.865 215.719 246.865 213.712 249.01 212.473L267.302 201.912C269.448 200.673 272.925 200.673 275.07 201.912L293.362 212.473C295.507 213.712 295.507 215.719 293.362 216.958L275.07 227.519C272.925 228.758 269.448 228.758 267.302 227.519Z" fill="#0F054C"/>
</g>
</g>
<path d="M271.186 214.165C269.938 214.165 268.689 213.888 267.737 213.342L249.445 202.781C248.492 202.236 247.975 201.496 247.975 200.701C247.975 199.905 248.502 199.165 249.445 198.62L267.737 188.059C269.642 186.968 272.73 186.959 274.635 188.059L292.927 198.62C293.88 199.165 294.398 199.905 294.398 200.701C294.398 201.496 293.87 202.236 292.927 202.781L274.635 213.342C273.683 213.888 272.435 214.165 271.186 214.165ZM271.186 187.55C269.993 187.55 268.8 187.809 267.894 188.337L249.602 198.897C248.751 199.387 248.289 200.025 248.289 200.701C248.289 201.376 248.751 202.014 249.602 202.504L267.894 213.065C269.706 214.11 272.656 214.11 274.469 213.065L292.761 202.504C293.612 202.014 294.074 201.376 294.074 200.701C294.074 200.025 293.612 199.387 292.761 198.897L274.469 188.337C273.563 187.809 272.37 187.55 271.177 187.55H271.186Z" fill="#42E8E0"/>
<path opacity="0.4" d="M294.971 196.65V190.389L293.824 189.751C293.501 191.712 291.198 192.997 289.275 193.265L276.171 200.932L270.446 202.994L252.192 193.571L252.617 193.33C251.054 192.6 250.213 190.935 249.371 189.409L248.141 190.14L247.411 190.343V196.715C247.411 197.529 247.947 198.342 249.02 198.953L267.311 209.513C269.457 210.753 272.934 210.753 275.079 209.513L293.371 198.953C294.425 198.342 294.962 197.547 294.98 196.752C294.98 196.715 294.98 196.678 294.98 196.641L294.971 196.65Z" fill="#3C53D7"/>
<path d="M294.971 191.083V186.94L293.824 186.302C293.501 188.262 291.198 189.548 289.275 189.816L276.171 197.482L270.446 199.545L252.192 190.121L252.617 189.881C251.054 189.15 250.213 187.486 249.371 185.96L248.141 186.69L247.411 186.894V191.148C247.411 191.961 247.947 192.775 249.02 193.386L267.311 203.946C269.457 205.186 272.934 205.186 275.079 203.946L293.371 193.386C294.425 192.775 294.962 191.98 294.98 191.185C294.98 191.148 294.98 191.111 294.98 191.074L294.971 191.083Z" fill="url(#paint6_linear_636_37125)"/>
<path opacity="0.3" d="M289.274 189.816L276.171 197.482L271.195 199.276V204.881C272.601 204.881 274.007 204.575 275.079 203.956L293.371 193.395C294.425 192.785 294.962 191.989 294.98 191.194C294.98 191.157 294.98 191.12 294.98 191.083V186.94L293.935 186.358H293.824C293.464 188.281 291.189 189.548 289.284 189.816H289.274Z" fill="#0F054C"/>
<path d="M267.302 199.739L249.01 189.178C246.865 187.939 246.865 185.932 249.01 184.693L267.302 174.132C269.448 172.893 272.925 172.893 275.07 174.132L293.362 184.693C295.507 185.932 295.507 187.939 293.362 189.178L275.07 199.739C272.925 200.978 269.448 200.978 267.302 199.739Z" fill="url(#paint7_linear_636_37125)"/>
<path d="M293.362 189.178L275.07 199.739C272.925 200.978 269.448 200.978 267.302 199.739L249.01 189.178C248.049 188.623 247.522 187.92 247.42 187.19C247.29 188.087 247.827 189.002 249.01 189.687L267.302 200.247C269.448 201.487 272.925 201.487 275.07 200.247L293.362 189.687C294.546 189.002 295.073 188.078 294.952 187.19C294.851 187.911 294.324 188.623 293.362 189.178Z" fill="white"/>
<g opacity="0.3">
<path d="M213.527 243.508V239.365L212.381 238.727C212.057 240.687 209.754 241.973 207.831 242.241L194.727 249.907L189.003 251.969L170.748 242.546L171.173 242.306C169.61 241.575 168.769 239.911 167.927 238.385L166.697 239.115L165.967 239.319V243.573C165.967 244.386 166.503 245.2 167.576 245.811L185.868 256.371C188.013 257.61 191.49 257.61 193.636 256.371L211.927 245.811C212.982 245.2 213.518 244.405 213.536 243.61C213.536 243.573 213.536 243.536 213.536 243.499L213.527 243.508Z" fill="url(#paint8_linear_636_37125)"/>
<path opacity="0.3" d="M207.831 242.241L194.727 249.907L189.751 251.701V257.305C191.157 257.305 192.563 257 193.635 256.381L211.927 245.82C212.981 245.21 213.518 244.414 213.536 243.619C213.536 243.582 213.536 243.545 213.536 243.508V239.365L212.491 238.782H212.38C212.02 240.706 209.745 241.973 207.84 242.241H207.831Z" fill="#0F054C"/>
<path d="M185.858 252.164L167.567 241.603C165.421 240.364 165.421 238.357 167.567 237.118L185.858 226.557C188.004 225.318 191.481 225.318 193.626 226.557L211.918 237.118C214.064 238.357 214.064 240.364 211.918 241.603L193.626 252.164C191.481 253.403 188.004 253.403 185.858 252.164Z" fill="url(#paint9_linear_636_37125)"/>
<g opacity="0.3">
<path d="M185.858 252.164L167.567 241.603C165.421 240.364 165.421 238.357 167.567 237.118L185.858 226.557C188.004 225.318 191.481 225.318 193.626 226.557L211.918 237.118C214.064 238.357 214.064 240.364 211.918 241.603L193.626 252.164C191.481 253.403 188.004 253.403 185.858 252.164Z" fill="#0F054C"/>
</g>
</g>
<path d="M189.742 236.804C188.494 236.804 187.245 236.526 186.293 235.981L168.001 225.42C167.049 224.874 166.531 224.134 166.531 223.339C166.531 222.544 167.058 221.804 168.001 221.258L186.293 210.698C188.198 209.597 191.287 209.597 193.192 210.698L211.483 221.258C212.436 221.804 212.954 222.544 212.954 223.339C212.954 224.134 212.427 224.874 211.483 225.42L193.192 235.981C192.239 236.526 190.991 236.804 189.742 236.804ZM186.459 235.703C188.272 236.748 191.222 236.748 193.034 235.703L211.326 225.142C212.177 224.652 212.639 224.014 212.639 223.339C212.639 222.664 212.177 222.026 211.326 221.536L193.034 210.975C191.222 209.93 188.272 209.93 186.459 210.975L168.168 221.536C167.326 222.026 166.854 222.664 166.854 223.339C166.854 224.014 167.317 224.652 168.168 225.142L186.459 235.703Z" fill="#42E8E0"/>
<path opacity="0.4" d="M213.527 219.279V213.019L212.381 212.38C212.057 214.341 209.754 215.626 207.831 215.895L194.727 223.561L189.003 225.623L170.748 216.2L171.173 215.959C169.61 215.229 168.769 213.564 167.927 212.038L166.697 212.769L165.967 212.972V219.344C165.967 220.158 166.503 220.971 167.576 221.582L185.868 232.143C188.013 233.382 191.49 233.382 193.636 232.143L211.927 221.582C212.982 220.971 213.518 220.176 213.536 219.381C213.536 219.344 213.536 219.307 213.536 219.27L213.527 219.279Z" fill="#3C53D7"/>
<path d="M213.527 213.712V209.569L212.381 208.931C212.057 210.892 209.754 212.177 207.831 212.445L194.727 220.111L189.003 222.174L170.748 212.75L171.173 212.51C169.61 211.779 168.769 210.115 167.927 208.589L166.697 209.32L165.967 209.523V213.777C165.967 214.591 166.503 215.404 167.576 216.015L185.868 226.576C188.013 227.815 191.49 227.815 193.636 226.576L211.927 216.015C212.982 215.404 213.518 214.609 213.536 213.814C213.536 213.777 213.536 213.74 213.536 213.703L213.527 213.712Z" fill="url(#paint10_linear_636_37125)"/>
<path opacity="0.3" d="M207.831 212.445L194.727 220.112L189.751 221.906V227.51C191.157 227.51 192.563 227.205 193.635 226.585L211.927 216.024C212.981 215.414 213.518 214.619 213.536 213.823C213.536 213.786 213.536 213.749 213.536 213.712V209.569L212.491 208.987H212.38C212.02 210.91 209.745 212.177 207.84 212.445H207.831Z" fill="#0F054C"/>
<path d="M185.858 222.368L167.567 211.807C165.421 210.568 165.421 208.561 167.567 207.322L185.858 196.761C188.004 195.522 191.481 195.522 193.626 196.761L211.918 207.322C214.064 208.561 214.064 210.568 211.918 211.807L193.626 222.368C191.481 223.607 188.004 223.607 185.858 222.368Z" fill="url(#paint11_linear_636_37125)"/>
<path d="M189.742 220.454C188.614 220.454 187.486 220.204 186.626 219.714L172.338 211.465C171.478 210.965 171.006 210.3 171.006 209.569C171.006 208.839 171.478 208.173 172.338 207.683L186.626 199.434C188.346 198.444 191.138 198.444 192.858 199.434L207.146 207.683C208.006 208.182 208.478 208.848 208.478 209.578C208.478 210.3 208.006 210.975 207.146 211.465L192.858 219.714C191.998 220.213 190.87 220.454 189.742 220.454ZM186.792 219.436C188.42 220.38 191.074 220.38 192.701 219.436L206.989 211.187C207.747 210.753 208.163 210.179 208.163 209.578C208.163 208.977 207.747 208.404 206.989 207.96L192.701 199.711C191.074 198.768 188.42 198.768 186.792 199.711L172.504 207.96C171.746 208.395 171.33 208.968 171.33 209.569C171.33 210.17 171.746 210.744 172.504 211.178L186.792 219.427V219.436Z" fill="white"/>
<path d="M271.195 197.466C270.067 197.466 268.939 197.217 268.079 196.727L253.791 188.478C252.931 187.978 252.459 187.312 252.459 186.582C252.459 185.851 252.931 185.186 253.791 184.695L268.079 176.447C269.799 175.457 272.592 175.457 274.312 176.447L288.599 184.695C289.459 185.195 289.931 185.861 289.931 186.591C289.931 187.312 289.459 187.988 288.599 188.478L274.312 196.727C273.452 197.226 272.323 197.466 271.195 197.466ZM268.245 196.449C269.873 197.392 272.527 197.392 274.154 196.449L288.442 188.2C289.2 187.766 289.616 187.192 289.616 186.591C289.616 185.99 289.2 185.417 288.442 184.973L274.154 176.724C272.527 175.781 269.873 175.781 268.245 176.724L253.958 184.973C253.199 185.407 252.783 185.981 252.783 186.582C252.783 187.183 253.199 187.756 253.958 188.191L268.245 196.44V196.449Z" fill="white"/>
<path d="M211.918 211.807L193.626 222.368C191.481 223.607 188.004 223.607 185.858 222.368L167.567 211.807C166.605 211.252 166.078 210.55 165.976 209.819C165.846 210.716 166.383 211.631 167.567 212.316L185.858 222.877C188.004 224.116 191.481 224.116 193.626 222.877L211.918 212.316C213.102 211.631 213.629 210.707 213.509 209.819C213.407 210.54 212.88 211.252 211.918 211.807Z" fill="white"/>
<g opacity="0.3">
<path d="M57.0853 96.4802V92.3372L55.9386 91.6992C55.615 93.6597 53.3123 94.9451 51.3888 95.2133L38.2849 102.88L32.5607 104.942L14.3059 95.5184L14.7313 95.278C13.1685 94.5474 12.3269 92.8829 11.4854 91.357L10.2555 92.0876L9.5249 92.291V96.5449C9.5249 97.3587 10.0613 98.1725 11.134 98.7828L29.4257 109.344C31.5712 110.583 35.0483 110.583 37.1937 109.344L55.4855 98.7828C56.5397 98.1725 57.0761 97.3772 57.0946 96.5819C57.0946 96.5449 57.0946 96.5079 57.0946 96.4709L57.0853 96.4802Z" fill="url(#paint12_linear_636_37125)"/>
<path opacity="0.3" d="M51.3886 95.213L38.2848 102.879L33.3096 104.673V110.277C34.7152 110.277 36.1208 109.972 37.1936 109.353L55.4853 98.7918C56.5395 98.1814 57.0759 97.3861 57.0944 96.5909C57.0944 96.5539 57.0944 96.5169 57.0944 96.4799V92.337L56.0494 91.7544H55.9385C55.5778 93.6779 53.3029 94.9448 51.3979 95.213H51.3886Z" fill="#0F054C"/>
<path d="M29.4257 105.145L11.134 94.5844C8.98854 93.3453 8.98854 91.3385 11.134 90.0994L29.4257 79.5386C31.5712 78.2994 35.0483 78.2994 37.1937 79.5386L55.4855 90.0994C57.6309 91.3385 57.6309 93.3453 55.4855 94.5844L37.1937 105.145C35.0483 106.384 31.5712 106.384 29.4257 105.145Z" fill="url(#paint13_linear_636_37125)"/>
<g opacity="0.3">
<path d="M29.4257 105.145L11.134 94.5844C8.98854 93.3453 8.98854 91.3385 11.134 90.0994L29.4257 79.5386C31.5712 78.2994 35.0483 78.2994 37.1937 79.5386L55.4855 90.0994C57.6309 91.3385 57.6309 93.3453 55.4855 94.5844L37.1937 105.145C35.0483 106.384 31.5712 106.384 29.4257 105.145Z" fill="#0F054C"/>
</g>
</g>
<path d="M33.3096 92.4852C32.0612 92.4852 30.8128 92.2077 29.8603 91.6621L11.5685 81.1013C10.616 80.5557 10.0981 79.8159 10.0981 79.0206C10.0981 78.2253 10.6253 77.4855 11.5685 76.9399L29.8603 66.3792C31.7653 65.2787 34.854 65.2787 36.759 66.3792L55.0507 76.9399C56.0032 77.4855 56.5211 78.2253 56.5211 79.0206C56.5211 79.8159 55.994 80.5557 55.0507 81.1013L36.759 91.6621C35.8065 92.2077 34.5581 92.4852 33.3096 92.4852ZM33.3096 65.8706C32.1167 65.8706 30.933 66.1295 30.0175 66.6566L11.7257 77.2174C10.8749 77.7075 10.4126 78.3456 10.4126 79.0206C10.4126 79.6957 10.8749 80.3338 11.7257 80.8239L30.0175 91.3847C31.83 92.4297 34.78 92.4297 36.5925 91.3847L54.8843 80.8239C55.7351 80.3338 56.1974 79.6957 56.1974 79.0206C56.1974 78.3456 55.7351 77.7075 54.8843 77.2174L36.5925 66.6566C35.6863 66.1295 34.4933 65.8706 33.3004 65.8706H33.3096Z" fill="#42E8E0"/>
<path opacity="0.4" d="M57.0853 74.9702V68.7096L55.9386 68.0715C55.615 70.032 53.3123 71.3174 51.3888 71.5856L38.2849 79.2519L32.5607 81.3141L14.3059 71.8908L14.7313 71.6503C13.1685 70.9198 12.3269 69.2552 11.4854 67.7294L10.2555 68.4599L9.5249 68.6634V75.035C9.5249 75.8488 10.0613 76.6625 11.134 77.2729L29.4257 87.8336C31.5712 89.0728 35.0483 89.0728 37.1937 87.8336L55.4855 77.2729C56.5397 76.6625 57.0761 75.8672 57.0946 75.072C57.0946 75.035 57.0946 74.998 57.0946 74.961L57.0853 74.9702Z" fill="#42E8E0"/>
<path d="M57.0853 69.4032V65.2603L55.9386 64.6222C55.615 66.5827 53.3123 67.8681 51.3888 68.1363L38.2849 75.8025L32.5607 77.8647L14.3059 68.4414L14.7313 68.201C13.1685 67.4704 12.3269 65.8059 11.4854 64.28L10.2555 65.0106L9.5249 65.214V69.4679C9.5249 70.2817 10.0613 71.0955 11.134 71.7058L29.4257 82.2666C31.5712 83.5058 35.0483 83.5058 37.1937 82.2666L55.4855 71.7058C56.5397 71.0955 57.0761 70.3002 57.0946 69.5049C57.0946 69.4679 57.0946 69.4309 57.0946 69.3939L57.0853 69.4032Z" fill="url(#paint14_linear_636_37125)"/>
<path opacity="0.3" d="M51.3886 68.1269L38.2848 75.7932L33.3096 77.5872V83.1913C34.7152 83.1913 36.1208 82.8861 37.1936 82.2665L55.4853 71.7058C56.5395 71.0954 57.0759 70.3001 57.0944 69.5048C57.0944 69.4679 57.0944 69.4309 57.0944 69.3939V65.2509L56.0494 64.6683H55.9385C55.5778 66.5918 53.3029 67.8588 51.3979 68.1269H51.3886Z" fill="#0F054C"/>
<path d="M14.7313 68.1918L32.0613 58.1859C32.7456 57.7882 33.8645 57.7882 34.5489 58.1859L51.583 68.0161L51.398 68.127C53.3215 67.8589 55.6242 66.5734 55.9478 64.613L36.833 53.9782L31.2752 52.5078L26.7439 55.1712L11.4854 64.2708C12.3269 65.7874 13.1684 67.4612 14.7313 68.1918Z" fill="url(#paint15_linear_636_37125)"/>
<path opacity="0.3" d="M33.3097 53.0537L31.2752 52.5173L26.7439 55.1806L11.4854 64.2803C12.3269 65.7969 13.1684 67.4707 14.7313 68.2013L32.0613 58.1953C32.4034 58.0011 32.8566 57.8994 33.3097 57.8994V53.0629V53.0537Z" fill="#0F054C"/>
<path d="M29.4257 78.059L11.134 67.4983C8.98854 66.2591 8.98854 64.2523 11.134 63.0132L29.4257 52.4524C31.5712 51.2132 35.0483 51.2132 37.1937 52.4524L55.4855 63.0132C57.6309 64.2523 57.6309 66.2591 55.4855 67.4983L37.1937 78.059C35.0483 79.2982 31.5712 79.2982 29.4257 78.059ZM34.5489 53.9783C33.8646 53.5806 32.7456 53.5806 32.0613 53.9783L13.7696 64.539C13.0852 64.9367 13.0852 65.5748 13.7696 65.9724L32.0613 76.5332C32.7456 76.9308 33.8646 76.9308 34.5489 76.5332L52.8407 65.9724C53.525 65.5748 53.525 64.9367 52.8407 64.539L34.5489 53.9783Z" fill="#42E8E0"/>
<path d="M52.8403 64.5388L34.5486 53.9781C33.8643 53.5804 32.7453 53.5804 32.061 53.9781L13.7692 64.5388C13.3161 64.807 13.1589 65.1769 13.3161 65.5191C13.3901 65.3526 13.5473 65.1954 13.7692 65.0567L32.061 54.4959C32.7453 54.0983 33.8643 54.0983 34.5486 54.4959L52.8403 65.0567C53.0715 65.1862 53.2195 65.3526 53.2935 65.5191C53.4507 65.1769 53.2935 64.807 52.8403 64.5388Z" fill="white"/>
<path d="M55.4854 67.4981L37.1936 78.0588C35.0482 79.298 31.5711 79.298 29.4257 78.0588L11.1339 67.4981C10.1721 66.9432 9.64504 66.2404 9.54331 65.5098C9.41385 66.4068 9.95021 67.3223 11.1339 68.0067L29.4257 78.5674C31.5711 79.8066 35.0482 79.8066 37.1936 78.5674L55.4854 68.0067C56.6691 67.3223 57.1962 66.3976 57.076 65.5098C56.9743 66.2311 56.4471 66.9432 55.4854 67.4981Z" fill="white"/>
<path d="M29.9344 77.7632L11.6426 67.2024C9.78384 66.1297 9.78384 64.3819 11.6426 63.3092L29.9344 52.7484C31.7931 51.6757 34.8171 51.6757 36.6666 52.7484L54.9584 63.3092C56.8171 64.3819 56.8171 66.1297 54.9584 67.1932L36.6666 77.7539C34.8079 78.8266 31.7839 78.8266 29.9344 77.7539V77.7632ZM35.0575 53.6824C34.0865 53.1183 32.5052 53.1183 31.5342 53.6824L13.2424 64.2432C12.2714 64.8073 12.2714 65.7135 13.2424 66.2776L31.5342 76.8384C32.5052 77.4025 34.0865 77.4025 35.0575 76.8384L53.3493 66.2776C54.3203 65.7135 54.3203 64.8073 53.3493 64.2432L35.0575 53.6824Z" fill="url(#paint16_linear_636_37125)"/>
<path opacity="0.4" d="M34.549 53.9783C33.8646 53.5806 32.7457 53.5806 32.0613 53.9783L13.7696 64.539C13.0853 64.9367 13.0853 65.5748 13.7696 65.9724L32.0613 76.5332C32.7457 76.9308 33.8646 76.9308 34.549 76.5332L52.8407 65.9724C53.525 65.5748 53.525 64.9367 52.8407 64.539L34.549 53.9783Z" fill="#42E8E0"/>
<path style="mix-blend-mode:lighten" opacity="0.5" d="M53.3491 65.242V0.000152588H13.2515V65.242C13.2515 65.5102 13.4179 65.7691 13.7693 65.9725L32.0611 76.5333C32.7454 76.931 33.8644 76.931 34.5487 76.5333L52.8404 65.9725C53.1919 65.7691 53.3583 65.5009 53.3491 65.242Z" fill="url(#paint17_linear_636_37125)"/>
<path d="M178.728 117.195C178.728 106.884 171.487 94.3438 162.554 89.1836C158.078 86.6036 154.028 86.3631 151.105 88.0647L148.044 89.8495L148.932 89.9327C147.323 91.9024 146.38 94.8154 146.38 98.5237C146.38 108.835 153.621 121.375 162.554 126.535C165.624 128.31 168.491 128.976 170.932 128.671L170.868 129.494L173.975 127.681L174.012 127.663L174.141 127.589C176.98 125.86 178.737 122.281 178.737 117.204L178.728 117.195Z" fill="#9FFFF8"/>
<path d="M170.902 129.474C177.218 125.828 177.219 114.004 170.904 103.066C164.589 92.1278 154.349 86.2168 148.033 89.8634C141.717 93.51 141.716 105.333 148.031 116.272C154.347 127.21 164.586 133.121 170.902 129.474Z" fill="#42E8E0"/>
<path d="M140.952 72.6214C146.935 64.2246 148.322 49.8075 144.04 40.4305C141.895 35.7327 138.742 33.1804 135.366 32.8659L131.843 32.5423L132.518 33.1249C130.058 33.7999 127.607 35.6217 125.453 38.6364C119.47 47.0333 118.082 61.4503 122.364 70.8273C123.834 74.0547 125.786 76.2649 127.95 77.4301L127.422 78.059L131.001 78.3826H131.048L131.195 78.4011C134.506 78.6416 138.02 76.7458 140.961 72.6121L140.952 72.6214Z" fill="#9FFFF8"/>
<path d="M142.784 56.578C143.992 44.0056 139.087 33.2479 131.827 32.5502C124.567 31.8524 117.702 41.4788 116.494 54.0512C115.286 66.6236 120.191 77.3813 127.451 78.079C134.711 78.7768 141.576 69.1505 142.784 56.578Z" fill="#42E8E0"/>
<g opacity="0.1">
<path d="M146.39 140.508C146.39 130.197 139.149 117.657 130.216 112.497C125.74 109.917 121.689 109.677 118.767 111.378L115.706 113.163L116.594 113.246C114.985 115.216 114.042 118.129 114.042 121.837C114.042 132.148 121.282 144.688 130.216 149.848C133.286 151.624 136.153 152.29 138.594 151.984L138.529 152.807L141.636 150.995L141.673 150.976L141.803 150.902C144.642 149.173 146.399 145.594 146.399 140.517L146.39 140.508Z" fill="#9FFFF8"/>
<path d="M138.564 152.785C144.88 149.139 144.881 137.315 138.566 126.377C132.25 115.439 122.011 109.528 115.695 113.175C109.379 116.821 109.378 128.645 115.693 139.583C122.008 150.521 132.248 156.432 138.564 152.785Z" fill="#42E8E0"/>
</g>
<path opacity="0.4" d="M128.172 157.339C117.019 157.339 105.857 154.888 97.368 149.987C89.1099 145.215 84.5601 138.871 84.5601 132.111C84.5601 125.351 89.1099 119.007 97.368 114.236C114.356 104.424 141.988 104.433 158.976 114.236C167.234 119.007 171.783 125.351 171.783 132.111C171.783 138.871 167.234 145.224 158.976 149.987L158.892 149.848L158.976 149.987C150.486 154.888 139.324 157.339 128.172 157.339ZM128.172 107.189C117.075 107.189 105.978 109.63 97.5252 114.504C89.3688 119.211 84.8837 125.462 84.8837 132.102C84.8837 138.742 89.3781 144.993 97.5344 149.7C114.43 159.456 141.923 159.456 158.818 149.7C166.975 144.993 171.46 138.742 171.46 132.102C171.46 125.462 166.965 119.211 158.809 114.504C150.357 109.621 139.26 107.189 128.162 107.189H128.172Z" fill="#42E8E0"/>
<path opacity="0.2" d="M128.172 164.099C114.014 164.099 99.8555 160.992 89.0821 154.768C78.6138 148.72 72.8433 140.675 72.8433 132.111C72.8433 123.548 78.6138 115.493 89.0821 109.455C110.638 97.0075 145.705 97.0075 167.261 109.455C177.73 115.503 183.5 123.548 183.5 132.111C183.5 140.675 177.73 148.729 167.261 154.768C156.488 160.992 142.33 164.099 128.172 164.099ZM128.172 100.429C114.069 100.429 99.9757 103.527 89.2393 109.723C78.8727 115.706 73.1577 123.659 73.1577 132.102C73.1577 140.555 78.8635 148.498 89.2393 154.481C110.703 166.873 145.631 166.873 167.095 154.481C177.461 148.498 183.176 140.545 183.176 132.102C183.176 123.659 177.471 115.706 167.095 109.723C156.358 103.527 142.265 100.429 128.162 100.429H128.172Z" fill="#42E8E0"/>
<path d="M128.172 152.012C119.377 152.012 110.592 150.079 103.897 146.214C97.3864 142.45 93.7983 137.438 93.7983 132.102C93.7983 126.766 97.3864 121.754 103.897 117.99C117.287 110.259 139.065 110.259 152.447 117.99C158.957 121.754 162.545 126.766 162.545 132.102C162.545 137.438 158.957 142.45 152.447 146.214L152.363 146.075L152.447 146.214C145.751 150.079 136.966 152.012 128.172 152.012ZM128.172 112.515C119.442 112.515 110.703 114.439 104.054 118.277C97.6453 121.976 94.1128 126.886 94.1128 132.111C94.1128 137.336 97.6453 142.237 104.054 145.946C117.352 153.621 138.991 153.621 152.289 145.946C158.698 142.247 162.231 137.336 162.231 132.12C162.231 126.905 158.698 121.994 152.289 118.286C145.64 114.448 136.911 112.525 128.172 112.525V112.515Z" fill="#42E8E0"/>
<path d="M146.39 140.508C146.39 130.197 139.149 117.657 130.216 112.497C125.74 109.917 121.689 109.677 118.767 111.378L115.706 113.163L116.594 113.246C114.985 115.216 114.042 118.129 114.042 121.837C114.042 132.148 121.282 144.688 130.216 149.848C133.286 151.624 136.153 152.29 138.594 151.984L138.529 152.807L141.636 150.995L141.673 150.976L141.803 150.902C144.642 149.173 146.399 145.594 146.399 140.517L146.39 140.508Z" fill="#9FFFF8"/>
<path d="M138.564 152.785C144.88 149.139 144.881 137.315 138.566 126.377C132.25 115.439 122.011 109.528 115.695 113.175C109.379 116.821 109.378 128.645 115.693 139.583C122.008 150.521 132.248 156.432 138.564 152.785Z" fill="#42E8E0"/>
<path opacity="0.4" d="M84.7361 185.119L33.9483 155.795C32.4502 154.925 32.4502 152.771 33.9483 151.901L41.6978 147.388C44.2871 145.89 47.4868 145.89 50.0761 147.388L100.864 176.713C102.362 177.582 102.362 179.737 100.864 180.606L93.1144 185.119C90.5251 186.617 87.3254 186.617 84.7361 185.119Z" fill="#24126A"/>
<path d="M59.3142 155.148L51.1855 150.459L52.8039 149.525L60.9325 154.214L59.3142 155.148Z" fill="#42E8E0"/>
<path d="M82.2298 168.713L79.7329 167.271L81.3512 166.337L83.8481 167.779L82.2298 168.713Z" fill="#42E8E0"/>
<path d="M64.0213 157.94L61.5244 156.497L63.1427 155.563L65.6396 157.006L64.0213 157.94Z" fill="#42E8E0"/>
<path d="M88.9249 179.283C87.4453 179.283 85.9657 178.904 84.6433 178.137L33.8555 148.813C33.0972 148.369 32.644 147.583 32.644 146.704C32.644 145.826 33.0972 145.04 33.8555 144.596L41.605 140.083C44.2498 138.557 47.5234 138.557 50.1682 140.083L100.956 169.407C101.714 169.842 102.168 170.637 102.168 171.516C102.168 172.394 101.714 173.18 100.956 173.624L93.2066 178.137C91.8842 178.895 90.4046 179.283 88.9249 179.283ZM45.8959 139.315C44.481 139.315 43.0661 139.676 41.7992 140.407L34.0497 144.919C33.4023 145.289 33.0139 145.964 33.0139 146.704C33.0139 147.444 33.4023 148.119 34.0497 148.489L84.8375 177.813C87.3621 179.274 90.5063 179.274 93.0309 177.813L100.78 173.3C101.428 172.93 101.816 172.265 101.816 171.516C101.816 170.766 101.428 170.101 100.78 169.731L49.9925 140.407C48.7256 139.676 47.3107 139.315 45.8959 139.315Z" fill="#42E8E0"/>
<defs>
<linearGradient id="paint0_linear_636_37125" x1="0.184647" y1="140.647" x2="268.633" y2="140.647" gradientUnits="userSpaceOnUse">
<stop stop-color="#BCBEFF"/>
<stop offset="0.15" stop-color="#A2A6F5"/>
<stop offset="0.39" stop-color="#8188E8"/>
<stop offset="0.61" stop-color="#6A72DE"/>
<stop offset="0.82" stop-color="#5B65D8"/>
<stop offset="1" stop-color="#5761D7"/>
</linearGradient>
<linearGradient id="paint1_linear_636_37125" x1="134.326" y1="55.4716" x2="134.326" y2="206.568" gradientUnits="userSpaceOnUse">
<stop stop-color="#3C53D7"/>
<stop offset="1" stop-color="#1A1B6E" stop-opacity="0"/>
</linearGradient>
<linearGradient id="paint2_linear_636_37125" x1="133.634" y1="55.4855" x2="133.634" y2="206.582" gradientUnits="userSpaceOnUse">
<stop stop-color="#3C53D7"/>
<stop stop-color="#2A49F9"/>
<stop offset="0.0001" stop-color="#2A49F9"/>
<stop offset="1" stop-color="#1A1B6E"/>
</linearGradient>
<linearGradient id="paint3_linear_636_37125" x1="171.802" y1="178.627" x2="96.8594" y2="79.1875" gradientUnits="userSpaceOnUse">
<stop stop-color="#42E8E0"/>
<stop offset="0.11" stop-color="#36B5BF"/>
<stop offset="0.22" stop-color="#2C87A0"/>
<stop offset="0.34" stop-color="#235F86"/>
<stop offset="0.46" stop-color="#1B3E71"/>
<stop offset="0.58" stop-color="#162560"/>
<stop offset="0.71" stop-color="#121355"/>
<stop offset="0.85" stop-color="#0F084E"/>
<stop offset="1" stop-color="#0F054C"/>
</linearGradient>
<linearGradient id="paint4_linear_636_37125" x1="252.136" y1="206.48" x2="289.876" y2="228.268" gradientUnits="userSpaceOnUse">
<stop stop-color="#BCBEFF"/>
<stop offset="0.23" stop-color="#AAADF7"/>
<stop offset="0.68" stop-color="#7B82E5"/>
<stop offset="1" stop-color="#5761D7"/>
</linearGradient>
<linearGradient id="paint5_linear_636_37125" x1="247.401" y1="214.711" x2="294.971" y2="214.711" gradientUnits="userSpaceOnUse">
<stop stop-color="#E9E9FD"/>
<stop offset="0.36" stop-color="#D2D2F9"/>
<stop offset="0.71" stop-color="#C4C3F6"/>
<stop offset="1" stop-color="#C0BFF6"/>
</linearGradient>
<linearGradient id="paint6_linear_636_37125" x1="252.136" y1="178.7" x2="289.876" y2="200.488" gradientUnits="userSpaceOnUse">
<stop stop-color="#3C53D7"/>
<stop offset="1" stop-color="#1A1B6E"/>
</linearGradient>
<linearGradient id="paint7_linear_636_37125" x1="247.401" y1="186.94" x2="294.971" y2="186.94" gradientUnits="userSpaceOnUse">
<stop stop-color="#3C53D7"/>
<stop offset="0.484375" stop-color="#65A3FB"/>
<stop offset="0.890625" stop-color="#1A1B6E"/>
</linearGradient>
<linearGradient id="paint8_linear_636_37125" x1="170.692" y1="231.125" x2="208.432" y2="252.913" gradientUnits="userSpaceOnUse">
<stop stop-color="#BCBEFF"/>
<stop offset="0.23" stop-color="#AAADF7"/>
<stop offset="0.68" stop-color="#7B82E5"/>
<stop offset="1" stop-color="#5761D7"/>
</linearGradient>
<linearGradient id="paint9_linear_636_37125" x1="165.958" y1="239.365" x2="213.527" y2="239.365" gradientUnits="userSpaceOnUse">
<stop stop-color="#E9E9FD"/>
<stop offset="0.36" stop-color="#D2D2F9"/>
<stop offset="0.71" stop-color="#C4C3F6"/>
<stop offset="1" stop-color="#C0BFF6"/>
</linearGradient>
<linearGradient id="paint10_linear_636_37125" x1="170.692" y1="201.33" x2="208.432" y2="223.117" gradientUnits="userSpaceOnUse">
<stop stop-color="#3C53D7"/>
<stop offset="1" stop-color="#1A1B6E"/>
</linearGradient>
<linearGradient id="paint11_linear_636_37125" x1="165.958" y1="209.569" x2="213.527" y2="209.569" gradientUnits="userSpaceOnUse">
<stop stop-color="#3C53D7"/>
<stop offset="0.395833" stop-color="#65A3FB"/>
<stop offset="0.760417" stop-color="#1A1B6E"/>
</linearGradient>
<linearGradient id="paint12_linear_636_37125" x1="14.2504" y1="84.1069" x2="51.9899" y2="105.894" gradientUnits="userSpaceOnUse">
<stop stop-color="#BCBEFF"/>
<stop offset="0.23" stop-color="#AAADF7"/>
<stop offset="0.68" stop-color="#7B82E5"/>
<stop offset="1" stop-color="#5761D7"/>
</linearGradient>
<linearGradient id="paint13_linear_636_37125" x1="9.5249" y1="92.3373" x2="57.0853" y2="92.3373" gradientUnits="userSpaceOnUse">
<stop stop-color="#E9E9FD"/>
<stop offset="0.36" stop-color="#D2D2F9"/>
<stop offset="0.71" stop-color="#C4C3F6"/>
<stop offset="1" stop-color="#C0BFF6"/>
</linearGradient>
<linearGradient id="paint14_linear_636_37125" x1="14.2504" y1="57.0207" x2="51.9899" y2="78.808" gradientUnits="userSpaceOnUse">
<stop stop-color="#1A1B6E"/>
<stop offset="0.463542" stop-color="#65A3FB"/>
<stop offset="1" stop-color="#5761D7"/>
</linearGradient>
<linearGradient id="paint15_linear_636_37125" x1="16.516" y1="55.5503" x2="50.1773" y2="74.9795" gradientUnits="userSpaceOnUse">
<stop offset="0.24" stop-color="#5761D7"/>
<stop offset="0.39" stop-color="#7A81E5"/>
<stop offset="0.55" stop-color="#979BF0"/>
<stop offset="0.7" stop-color="#ABAEF8"/>
<stop offset="0.85" stop-color="#B7BAFD"/>
<stop offset="1" stop-color="#BCBEFF"/>
</linearGradient>
<linearGradient id="paint16_linear_636_37125" x1="10.2555" y1="65.2512" x2="56.3548" y2="65.2512" gradientUnits="userSpaceOnUse">
<stop stop-color="#1A1B6E"/>
<stop offset="1" stop-color="#65A3FB"/>
</linearGradient>
<linearGradient id="paint17_linear_636_37125" x1="33.3003" y1="76.8292" x2="33.3003" y2="0.000152588" gradientUnits="userSpaceOnUse">
<stop stop-color="#42E8E0"/>
<stop offset="0.11" stop-color="#36B5BF"/>
<stop offset="0.22" stop-color="#2C87A0"/>
<stop offset="0.34" stop-color="#235F86"/>
<stop offset="0.46" stop-color="#1B3E71"/>
<stop offset="0.58" stop-color="#162560"/>
<stop offset="0.71" stop-color="#121355"/>
<stop offset="0.85" stop-color="#0F084E"/>
<stop offset="1" stop-color="#0F054C"/>
</linearGradient>
</defs>
</svg>
